<svg xmlns="http://www.w3.org/2000/svg" width="512" height="512" style="" viewBox="0 0 512 512" data-svgdocument="" id="_eg90l3bab_1" class="fl-svgdocument" x="0" y="0"><path id="_eg90l3bab_209" transform="matrix(1.443539359678383, 0, 0, 1.443539359678383, 189.95412977780273, 152.92026967129533)" fill="#7dccab" data-type="circle" data-cx="50" data-cy="50" data-r="50" d="M50 50m-50 0a50 50 0 1 0 100 0a50 50 0 1 0 -100 0"></path><path id="_eg90l3bab_128" d="M8 4 C5.789 4 4 2.211 4 0 C4 2.211 2.211 4 0 4 C2.211 4 4 5.789 4 8 C4 5.789 5.789 4 8 4 L8 4 Z" transform="matrix(-3.3721021572999805, 0, 0, 3.3765820724879974, 206.56230507305247, 135.33412378609842)" stroke="#1e252a" stroke-width="2" stroke-linecap="round" fill="#ffffff" stroke-linejoin="round"></path><path id="_eg90l3bab_129" d="M28.1744 44 L50.0004 44" transform="matrix(2.7967156950278826, 0, 0, 2.7967156950278826, 180.48867581622704, 143.34963687826735)" stroke="#1e252a" stroke-width="2" stroke-linecap="round" fill="#1e252a"></path><path id="_eg90l3bab_130" d="M8 44 L21.943 44" stroke="#1e252a" stroke-width="2" transform="matrix(2.7967156950278826, 0, 0, 2.7967156950278826, 180.48867581622704, 143.34963687826735)" stroke-linecap="round" fill="#1e252a"></path><path id="_eg90l3bab_131" d="M7.7371 32 L4.0001 32" stroke="#1e252a" stroke-width="2" transform="matrix(2.7967156950278826, 0, 0, 2.7967156950278826, 180.48867581622704, 143.34963687826735)" stroke-linecap="round" fill="#1e252a"></path><path id="_eg90l3bab_132" d="M34 32 L15 32" stroke="#1e252a" stroke-width="2" stroke-linecap="round" transform="matrix(2.7967156950278826, 0, 0, 2.7967156950278826, 180.48867581622704, 143.34963687826735)" fill="#1e252a"></path><path id="_eg90l3bab_133" d="M42 38 L21 38" stroke="#1e252a" stroke-width="2" stroke-linecap="round" transform="matrix(2.7967156950278826, 0, 0, 2.7967156950278826, 180.48867581622704, 143.34963687826735)" fill="#1e252a"></path><path id="_eg90l3bab_134" d="M30 49 L13 49" stroke="#1e252a" stroke-width="2" stroke-linecap="round" transform="matrix(2.7967156950278826, 0, 0, 2.7967156950278826, 180.48867581622704, 143.34963687826735)" fill="#1e252a"></path><path id="_eg90l3bab_135" d="M33 26 L23 26" stroke="#1e252a" stroke-width="2" stroke-linecap="round" transform="matrix(2.7967156950278826, 0, 0, 2.7967156950278826, 180.48867581622704, 143.34963687826735)" fill="#1e252a"></path><path id="_eg90l3bab_136" d="M14 26 L4 26" stroke="#1e252a" stroke-width="2" stroke-linecap="round" transform="matrix(2.7967156950278826, 0, 0, 2.7967156950278826, 180.48867581622704, 143.34963687826735)" fill="#1e252a"></path><path id="_eg90l3bab_137" d="M32 15 L22 15" stroke="#1e252a" stroke-width="2" stroke-linecap="round" transform="matrix(2.7967156950278826, 0, 0, 2.7967156950278826, 180.48867581622704, 143.34963687826735)" fill="#1e252a"></path><path id="_eg90l3bab_138" d="M54 32 L42 32" stroke="#1e252a" stroke-width="2" stroke-linecap="round" transform="matrix(2.7967156950278826, 0, 0, 2.7967156950278826, 180.48867581622704, 143.34963687826735)" fill="#1e252a"></path><path id="_eg90l3bab_139" d="M25.6229 9 L12.9999 9" stroke="#1e252a" stroke-width="2" stroke-linecap="round" transform="matrix(2.7967156950278826, 0, 0, 2.7967156950278826, 180.48867581622704, 143.34963687826735)" fill="#1e252a"></path><path id="_eg90l3bab_140" d="M38 9 L32 9" stroke="#1e252a" stroke-width="2" stroke-linecap="round" transform="matrix(2.7967156950278826, 0, 0, 2.7967156950278826, 180.48867581622704, 143.34963687826735)" fill="#1e252a"></path><path id="_eg90l3bab_141" d="M30.2629 21 L52.9999 21" stroke="#1e252a" stroke-width="2" stroke-linecap="round" transform="matrix(2.7967156950278826, 0, 0, 2.7967156950278826, 180.48867581622704, 143.34963687826735)" fill="#1e252a"></path><path id="_eg90l3bab_142" d="M5 21 L23.661 21" transform="matrix(2.7967156950278826, 0, 0, 2.7967156950278826, 180.48867581622704, 143.34963687826735)" fill="#1e252a" stroke="#1e252a" stroke-width="2" stroke-linecap="round"></path><path id="_eg90l3bab_152" d="M40 68.5c-15.7 0-28.5-12.8-28.5-28.5S24.3 11.5 40 11.5S68.5 24.3 68.5 40S55.7 68.5 40 68.5z M40 13.5   c-14.6 0-26.5 11.9-26.5 26.5S25.4 66.5 40 66.5S66.5 54.6 66.5 40S54.6 13.5 40 13.5z" transform="matrix(2.630389889916302, 0, 0, 2.630389889916302, 155.87589847027016, 119.88163490600513)" fill="#1d3b19"></path><path id="_eg90l3bab_123" d="M53 52 C53 52.552 52.552 53 52 53 C51.448 53 51 52.552 51 52 C51 51.448 51.448 51 52 51 C52.552 51 53 51.448 53 52" transform="matrix(2.7967156950278826, 0, 0, 2.7967156950278826, 180.48867581622704, 143.34963687826735)" stroke="none" fill="#1e252a" stroke-width="1"></path><path id="_eg90l3bab_124" d="M57 9 C57 9.552 56.552 10 56 10 C55.448 10 55 9.552 55 9 C55 8.448 55.448 8 56 8 C56.552 8 57 8.448 57 9" stroke="none" transform="matrix(2.7967156950278826, 0, 0, 2.7967156950278826, 180.48867581622704, 143.34963687826735)" fill="#1e252a" stroke-width="1"></path><path id="_eg90l3bab_125" d="M7 56 C7 56.552 6.552 57 6 57 C5.448 57 5 56.552 5 56 C5 55.448 5.448 55 6 55 C6.552 55 7 55.448 7 56" stroke="none" transform="matrix(2.7967156950278826, 0, 0, 2.7967156950278826, 180.48867581622704, 143.34963687826735)" fill="#1e252a" stroke-width="1"></path><path id="_eg90l3bab_126" d="M50 8 C50 11.314 47.314 14 44 14 C40.686 14 38 11.314 38 8 C38 4.686 40.686 2 44 2 C47.314 2 50 4.686 50 8 L50 8 Z" transform="matrix(2.7967156950278826, 0, 0, 2.7967156950278826, 180.48867581622704, 143.34963687826735)" stroke="#1e252a" stroke-width="2" fill="#ffffff"></path><path id="_eg90l3bab_127" d="M43 53 C43 55.209 41.209 57 39 57 C36.791 57 35 55.209 35 53 C35 50.791 36.791 49 39 49 C41.209 49 43 50.791 43 53 L43 53 Z" stroke="#1e252a" stroke-width="2" transform="matrix(2.7967156950278826, 0, 0, 2.7967156950278826, 180.48867581622704, 143.34963687826735)" fill="#ffffff"></path><path text="CAMPSITE" fill="#1e252a" transform="matrix(1.1662984913954448, 0, 0, 1.1662984913954448, 256.002331315649, 358.2329192227695)" space="preserve" text-anchor="middle" offset="0.5" font-scale="contain" font-size="48" font-family="Fredoka One" data-fl-textpath="" id="_eg90l3bab_225" font-weight="400" font-style="normal" d="M-99.34-9.22L-99.34-9.22L-98.47000000000001-9.84Q-96.84-10.8 -96.17000000000002-10.8L-96.17000000000002-10.8Q-94.68-10.8 -92.95000000000002-8.11L-92.95000000000002-8.11Q-91.9-6.43 -91.9-5.42Q-91.9-4.42 -92.54-3.74Q-93.19000000000001-3.07 -94.06-2.54Q-94.92000000000002-2.02 -95.71000000000001-1.54Q-96.50000000000001-1.06 -98.95000000000002-0.29Q-101.4 0.48 -103.68 0.48Q-105.96000000000001 0.48 -108.29-0.12Q-110.62-0.72 -113.09-2.14Q-115.56-3.55 -117.53000000000002-5.59Q-119.50000000000001-7.63 -120.77000000000001-10.82Q-122.04-14.02 -122.04-17.76Q-122.04-21.5 -120.79-24.55Q-119.54-27.6 -117.60000000000001-29.59Q-115.66000000000001-31.58 -113.16000000000001-32.93L-113.16000000000001-32.93Q-108.46000000000001-35.52 -103.70000000000002-35.52L-103.70000000000002-35.52Q-101.45000000000002-35.52 -99.12-34.82Q-96.79-34.13 -95.59-33.41L-95.59-33.41L-94.44000000000001-32.74Q-93.58000000000001-32.21 -93.10000000000001-31.87L-93.10000000000001-31.87Q-91.85000000000001-30.86 -91.85000000000001-29.59Q-91.85000000000001-28.32 -92.86000000000001-26.93L-92.86000000000001-26.93Q-94.73-24.34 -96.22000000000001-24.34L-96.22000000000001-24.34Q-97.08000000000001-24.34 -98.66000000000001-25.39L-98.66000000000001-25.39Q-100.68-27.02 -104.04-27.02L-104.04-27.02Q-107.16000000000001-27.02 -110.18-24.86L-110.18-24.86Q-111.62-23.81 -112.58000000000001-21.89Q-113.54-19.97 -113.54-17.54Q-113.54-15.12 -112.58000000000001-13.2Q-111.62-11.28 -110.14000000000001-10.18L-110.14000000000001-10.18Q-107.21000000000001-8.06 -104.04-8.06L-104.04-8.06Q-102.55000000000001-8.06 -101.23-8.45Q-99.91000000000001-8.83 -99.34-9.22ZM-69.388-32.69L-69.388-32.69L-56.428000000000004-5.9Q-55.608000000000004-4.27 -55.608000000000004-3.46L-55.608000000000004-3.46Q-55.608000000000004-1.73 -58.388000000000005-0.34L-58.388000000000005-0.34Q-60.028000000000006 0.48 -60.958000000000006 0.48Q-61.898 0.48 -62.498000000000005 0.05Q-63.098-0.38 -63.358000000000004-0.86Q-63.628-1.34 -64.108-2.3L-64.108-2.3L-66.598-7.49L-79.898-7.49L-82.388-2.3Q-82.86800000000001-1.34 -83.138-0.91Q-83.398-0.48 -83.998-0.02Q-84.598 0.43 -85.53800000000001 0.43Q-86.468 0.43 -88.108-0.38L-88.108-0.38Q-90.888-1.73 -90.888-3.46L-90.888-3.46Q-90.888-4.27 -90.068-5.9L-90.068-5.9L-77.108-32.74Q-76.58800000000001-33.84 -75.50800000000001-34.51Q-74.428-35.18 -73.22800000000001-35.18L-73.22800000000001-35.18Q-70.628-35.18 -69.388-32.69ZM-70.058-14.59L-73.268-21.17L-76.438-14.59L-70.058-14.59ZM-15.578000000000003-33.84L-15.578000000000003-33.84Q-15.188000000000002-33.12 -15.118000000000002-32.54Q-15.048000000000002-31.97 -15.048000000000002-30.86L-15.048000000000002-30.86L-15.048000000000002-4.22Q-15.048000000000002-0.91 -16.868000000000002-0.34L-16.868000000000002-0.34Q-17.788000000000004-0.05 -19.178000000000004-0.05Q-20.568000000000005-0.05 -21.388000000000005-0.29Q-22.198000000000008-0.53 -22.628000000000007-0.86Q-23.068000000000005-1.2 -23.308000000000007-1.82L-23.308000000000007-1.82Q-23.548000000000005-2.64 -23.548000000000005-4.32L-23.548000000000005-4.32L-23.548000000000005-20.4Q-24.748000000000005-18.91 -27.048000000000005-15.67Q-29.348000000000006-12.43 -29.978000000000005-11.62Q-30.598000000000006-10.8 -30.838000000000005-10.49Q-31.078000000000007-10.18 -32.018-9.62Q-32.94800000000001-9.07 -34.028000000000006-9.07Q-35.108000000000004-9.07 -35.998000000000005-9.58Q-36.888000000000005-10.08 -37.268-10.56L-37.268-10.56L-37.658-11.09Q-38.61800000000001-12.29 -41.44800000000001-16.2Q-44.278000000000006-20.11 -44.51800000000001-20.4L-44.51800000000001-20.4L-44.51800000000001-4.22Q-44.51800000000001-3.12 -44.58800000000001-2.57Q-44.668000000000006-2.02 -45.048-1.34L-45.048-1.34Q-45.76800000000001-0.05 -48.788000000000004-0.05L-48.788000000000004-0.05Q-51.718-0.05 -52.438-1.34L-52.438-1.34Q-52.828-2.02 -52.898-2.59Q-52.968-3.17 -52.968-4.32L-52.968-4.32L-52.968-30.96Q-52.968-32.06 -52.898-32.62Q-52.828-33.17 -52.438-33.89L-52.438-33.89Q-51.718-35.14 -48.69800000000001-35.14L-48.69800000000001-35.14Q-47.398-35.14 -46.468-34.82Q-45.528000000000006-34.51 -45.23800000000001-34.18L-45.23800000000001-34.18L-44.94800000000001-33.89L-34.05800000000001-19.58Q-25.898000000000007-30.38 -23.158000000000005-33.84L-23.158000000000005-33.84Q-22.348000000000006-35.14 -19.298000000000002-35.14Q-16.248000000000005-35.14 -15.578000000000003-33.84ZM 14.761999999999993-28.08Q 16.011999999999993-25.54  16.011999999999993-22.42Q 16.011999999999993-19.3  14.761999999999993-16.78Q 13.511999999999993-14.26  11.541999999999994-12.77L 11.541999999999994-12.77Q 7.561999999999994-9.7  3.2919999999999945-9.7L 3.2919999999999945-9.7L-2.7080000000000073-9.7L-2.7080000000000073-4.27Q-2.7080000000000073-3.17 -2.7880000000000074-2.62Q-2.8580000000000076-2.06 -3.2380000000000067-1.34L-3.2380000000000067-1.34Q-3.9080000000000066-0.05 -6.9880000000000075-0.05L-6.9880000000000075-0.05Q-10.348000000000008-0.05 -10.918000000000006-1.82L-10.918000000000006-1.82Q-11.208000000000007-2.64 -11.208000000000007-4.32L-11.208000000000007-4.32L-11.208000000000007-30.96Q-11.208000000000007-32.06 -11.138000000000007-32.62Q-11.068000000000007-33.17 -10.678000000000008-33.89L-10.678000000000008-33.89Q-10.008000000000006-35.18 -6.938000000000007-35.18L-6.938000000000007-35.18L 3.3319999999999936-35.18Q 7.561999999999994-35.18  11.541999999999994-32.11L 11.541999999999994-32.11Q 13.511999999999993-30.62  14.761999999999993-28.08ZM 3.3319999999999936-18.19Q 4.771999999999991-18.19  6.1719999999999935-19.25Q 7.561999999999994-20.3  7.561999999999994-22.42Q 7.561999999999994-24.53  6.1719999999999935-25.61Q 4.771999999999991-26.69  3.2919999999999945-26.69L 3.2919999999999945-26.69L-2.7080000000000073-26.69L-2.7080000000000073-18.19L 3.3319999999999936-18.19ZM 20.087999999999994-4.42L 19.657999999999994-4.94Q 18.407999999999994-6.48  18.407999999999994-7.7Q 18.407999999999994-8.93  20.467999999999996-10.94L 20.467999999999996-10.94Q 21.667999999999996-12.1  23.017999999999994-12.1Q 24.357999999999997-12.1  26.757999999999996-9.7L 26.757999999999996-9.7Q 27.427999999999997-8.88  28.677999999999997-8.14Q 29.927999999999997-7.39  30.987999999999992-7.39L 30.987999999999992-7.39Q 35.44799999999999-7.39  35.44799999999999-11.04L 35.44799999999999-11.04Q 35.44799999999999-12.14  34.227999999999994-12.89Q 32.99799999999999-13.63  31.177999999999997-13.97Q 29.347999999999995-14.3  27.237999999999992-15.05Q 25.127999999999993-15.79  23.307999999999993-16.8Q 21.477999999999994-17.81  20.257999999999996-19.99Q 19.027999999999995-22.18  19.027999999999995-25.25L 19.027999999999995-25.25Q 19.027999999999995-29.47  22.177999999999994-32.62Q 25.317999999999994-35.76  30.747999999999994-35.76L 30.747999999999994-35.76Q 33.628-35.76  35.99799999999999-35.02Q 38.378-34.27  39.288-33.5L 39.288-33.5L 40.488-32.59Q 41.977999999999994-31.2  41.977999999999994-30.24Q 41.977999999999994-29.28  40.827999999999996-27.6L 40.827999999999996-27.6Q 39.187999999999995-25.2  37.467999999999996-25.2L 37.467999999999996-25.2Q 36.458-25.2  34.967999999999996-26.16L 34.967999999999996-26.16Q 34.827999999999996-26.26  34.41799999999999-26.64Q 34.007999999999996-27.02  33.66799999999999-27.26L 33.66799999999999-27.26Q 32.66799999999999-27.89  31.107999999999997-27.89Q 29.547999999999995-27.89  28.507999999999996-27.14Q 27.477999999999994-26.4  27.477999999999994-25.08Q 27.477999999999994-23.76  28.707999999999995-22.94Q 29.927999999999997-22.13  31.747999999999994-21.84Q 33.577999999999996-21.55  35.738-20.95Q 37.897999999999996-20.35  39.717999999999996-19.49Q 41.547999999999995-18.62  42.767999999999994-16.49Q 43.988-14.35  43.988-11.23Q 43.988-8.11  42.74799999999999-5.74Q 41.49799999999999-3.36  39.477999999999994-2.06L 39.477999999999994-2.06Q 35.587999999999994 0.48  31.177999999999997 0.48L 31.177999999999997 0.48Q 28.917999999999996 0.48  26.907999999999994-0.07Q 24.887999999999995-0.62  23.637999999999995-1.44L 23.637999999999995-1.44Q 21.097999999999995-2.98  20.087999999999994-4.42L 20.087999999999994-4.42ZM 47.111999999999995-4.27L 47.111999999999995-30.96Q 47.111999999999995-32.06  47.181999999999995-32.62Q 47.251999999999995-33.17  47.641999999999996-33.89L 47.641999999999996-33.89Q 48.31199999999999-35.18  51.38199999999999-35.18L 51.38199999999999-35.18Q 54.74199999999999-35.18  55.37199999999999-33.41L 55.37199999999999-33.41Q 55.611999999999995-32.59  55.611999999999995-30.91L 55.611999999999995-30.91L 55.611999999999995-4.22Q 55.611999999999995-3.07  55.532-2.54Q 55.46199999999999-2.02  55.081999999999994-1.3L 55.081999999999994-1.3Q 54.41199999999999 0  51.331999999999994 0L 51.331999999999994 0Q 47.971999999999994 0  47.401999999999994-1.82L 47.401999999999994-1.82Q 47.111999999999995-2.59  47.111999999999995-4.27L 47.111999999999995-4.27ZM 61.74799999999999-35.23L 61.74799999999999-35.23L 88.43799999999999-35.23Q 89.978-35.23  90.698-34.87Q 91.41799999999999-34.51  91.65799999999999-33.74Q 91.898-32.98  91.898-31.73Q 91.898-30.48  91.65799999999999-29.74Q 91.41799999999999-28.99  90.838-28.7L 90.838-28.7Q 89.978-28.27  88.38799999999999-28.27L 88.38799999999999-28.27L 79.228-28.27L 79.228-4.13Q 79.228-3.02  79.148-2.5Q 79.07799999999999-1.97  78.71799999999999-1.27Q 78.35799999999999-0.58  77.448-0.29Q 76.538 0  75.04799999999999 0Q 73.55799999999999 0  72.66799999999999-0.29Q 71.788-0.58  71.428-1.27Q 71.06799999999998-1.97  70.988-2.52Q 70.91799999999999-3.07  70.91799999999999-4.18L 70.91799999999999-4.18L 70.91799999999999-28.27L 61.70799999999999-28.27Q 60.16799999999999-28.27  59.44799999999999-28.63Q 58.727999999999994-28.99  58.48799999999999-29.76Q 58.24799999999999-30.53  58.24799999999999-31.78Q 58.24799999999999-33.02  58.48799999999999-33.77Q 58.727999999999994-34.51  59.30799999999999-34.8L 59.30799999999999-34.8Q 60.16799999999999-35.23  61.74799999999999-35.23ZM 103.03599999999999-13.34L 103.03599999999999-8.5L 117.81599999999999-8.5Q 118.91599999999998-8.5  119.47599999999998-8.42Q 120.02599999999998-8.35  120.74599999999998-7.97L 120.74599999999998-7.97Q 122.03599999999999-7.3  122.03599999999999-4.22L 122.03599999999999-4.22Q 122.03599999999999-0.86  120.26599999999999-0.29L 120.26599999999999-0.29Q 119.44599999999998 0  117.76599999999999 0L 117.76599999999999 0L 98.75599999999999 0Q 95.39599999999999 0  94.82599999999998-1.82L 94.82599999999998-1.82Q 94.53599999999999-2.59  94.53599999999999-4.27L 94.53599999999999-4.27L 94.53599999999999-30.96Q 94.53599999999999-33.41  95.44599999999998-34.3Q 96.35599999999998-35.18  98.90599999999999-35.18L 98.90599999999999-35.18L 117.81599999999999-35.18Q 118.91599999999998-35.18  119.47599999999998-35.11Q 120.02599999999998-35.04  120.74599999999998-34.66L 120.74599999999998-34.66Q 122.03599999999999-33.98  122.03599999999999-30.91L 122.03599999999999-30.91Q 122.03599999999999-27.55  120.26599999999999-26.98L 120.26599999999999-26.98Q 119.44599999999998-26.69  117.76599999999999-26.69L 117.76599999999999-26.69L 103.03599999999999-26.69L 103.03599999999999-21.84L 112.53599999999999-21.84Q 113.63599999999998-21.84  114.19599999999998-21.77Q 114.74599999999998-21.7  115.46599999999998-21.31L 115.46599999999998-21.31Q 116.75599999999999-20.64  116.75599999999999-17.57L 116.75599999999999-17.57Q 116.75599999999999-14.21  114.93599999999998-13.63L 114.93599999999998-13.63Q 114.11599999999999-13.34  112.43599999999998-13.34L 112.43599999999998-13.34L 103.03599999999999-13.34Z"></path></svg>